ffmpeg started on 2016-12-02 at 12:00:28
Report written to "Output/x264/results/ffmpeg/old_town_cross_2160p50veryslow1000k.log"
Command line:
Tools/ffmpeg/ffmpeg -benchmark -y -i Input/y4m/old_town_cross_2160p50.y4m -c:v libx264 -preset veryslow -b:v 1000k -an Output/x264/encoded/old_town_cross_2160p50veryslow1000k.mkv
ffmpeg version N-82227-gdb23fde Copyright (c) 2000-2016 the FFmpeg developers
  built with gcc 5.4.0 (Ubuntu 5.4.0-6ubuntu1~16.04.2) 20160609
  configuration: --prefix=/home/jaroslav/ffmpeg_build --pkg-config-flags=--static --extra-cflags=-I/home/jaroslav/ffmpeg_build/include --extra-ldflags=-L/home/jaroslav/ffmpeg_build/lib --bindir=/home/jaroslav/bin --enable-gpl --enable-libass --enable-libfdk-aac --enable-libfreetype --enable-libmp3lame --enable-libopus --enable-libtheora --enable-libvorbis --enable-libvpx --enable-libx264 --enable-libx265 --enable-nvenc --enable-libmfx --enable-libxvid --enable-libgsm --enable-libopencore-amrnb --enable-version3 --enable-nonfree
  libavutil      55. 35.100 / 55. 35.100
  libavcodec     57. 66.101 / 57. 66.101
  libavformat    57. 57.100 / 57. 57.100
  libavdevice    57.  2.100 / 57.  2.100
  libavfilter     6. 66.100 /  6. 66.100
  libswscale      4.  3.100 /  4.  3.100
  libswresample   2.  4.100 /  2.  4.100
  libpostproc    54.  2.100 / 54.  2.100
Input #0, yuv4mpegpipe, from 'Input/y4m/old_town_cross_2160p50.y4m':
  Duration: 00:00:10.00, start: 0.000000, bitrate: 4976642 kb/s
    Stream #0:0: Video: rawvideo (I420 / 0x30323449), yuv420p(progressive), 3840x2160, SAR 1:1 DAR 16:9, 50 fps, 50 tbr, 50 tbn, 50 tbc
[libx264 @ 0x4184120] using SAR=1/1
[libx264 @ 0x4184120] DPB size (16 frames, 518400 mbs) > level limit (5 frames, 184320 mbs)
[libx264 @ 0x4184120] using cpu capabilities: MMX2 SSE2Fast SSSE3 SSE4.2 AVX FMA3 AVX2 LZCNT BMI2
[libx264 @ 0x4184120] profile High, level 5.2
[libx264 @ 0x4184120] 264 - core 148 - H.264/MPEG-4 AVC codec - Copyleft 2003-2016 - http://www.videolan.org/x264.html - options: cabac=1 ref=16 deblock=1:0:0 analyse=0x3:0x133 me=umh subme=10 psy=1 psy_rd=1.00:0.00 mixed_ref=1 me_range=24 chroma_me=1 trellis=2 8x8dct=1 cqm=0 deadzone=21,11 fast_pskip=1 chroma_qp_offset=-2 threads=6 lookahead_threads=1 sliced_threads=0 nr=0 decimate=1 interlaced=0 bluray_compat=0 constrained_intra=0 bframes=8 b_pyramid=2 b_adapt=2 b_bias=0 direct=3 weightb=1 open_gop=0 weightp=2 keyint=250 keyint_min=25 scenecut=40 intra_refresh=0 rc_lookahead=60 rc=abr mbtree=1 bitrate=1000 ratetol=1.0 qcomp=0.60 qpmin=0 qpmax=69 qpstep=4 ip_ratio=1.40 aq=1:1.00
Output #0, matroska, to 'Output/x264/encoded/old_town_cross_2160p50veryslow1000k.mkv':
  Metadata:
    encoder         : Lavf57.57.100
    Stream #0:0: Video: h264 (libx264) (H264 / 0x34363248), yuv420p, 3840x2160 [SAR 1:1 DAR 16:9], q=-1--1, 1000 kb/s, 50 fps, 1k tbn, 50 tbc
    Metadata:
      encoder         : Lavc57.66.101 libx264
    Side data:
      cpb: bitrate max/min/avg: 0/0/1000000 buffer size: 0 vbv_delay: -1
Stream mapping:
  Stream #0:0 -> #0:0 (rawvideo (native) -> h264 (libx264))
Press [q] to stop, [?] for help
frame=   60 fps=0.0 q=0.0 size=       0kB time=00:00:00.00 bitrate=N/A speed=   0x    frame=   72 fps=8.0 q=0.0 size=       0kB time=00:00:00.00 bitrate=N/A speed=   0x    frame=   78 fps=8.2 q=53.0 size=       1kB time=00:00:00.00 bitrate=5888.0kbits/s speed=0.000105x    frame=   82 fps=6.9 q=57.0 size=       1kB time=00:00:00.08 bitrate=  72.7kbits/s speed=0.0068x    frame=   88 fps=6.8 q=60.0 size=       1kB time=00:00:00.20 bitrate=  29.3kbits/s speed=0.0156x    frame=   91 fps=6.2 q=61.0 size=       1kB time=00:00:00.26 bitrate=  22.6kbits/s speed=0.0177x    frame=   96 fps=6.2 q=60.0 size=       1kB time=00:00:00.36 bitrate=  16.3kbits/s speed=0.0234x    frame=   98 fps=6.1 q=60.0 size=       1kB time=00:00:00.40 bitrate=  14.7kbits/s speed=0.025x    frame=  100 fps=5.7 q=59.0 size=       1kB time=00:00:00.44 bitrate=  13.4kbits/s speed=0.0249x    frame=  105 fps=5.7 q=58.0 size=       1kB time=00:00:00.54 bitrate=  10.9kbits/s speed=0.0294x    frame=  106 fps=5.5 q=58.0 size=       1kB time=00:00:00.56 bitrate=  10.5kbits/s speed=0.0293x    frame=  108 fps=5.3 q=58.0 size=       1kB time=00:00:00.60 bitrate=   9.8kbits/s speed=0.0296x    frame=  113 fps=5.3 q=58.0 size=       1kB time=00:00:00.70 bitrate=   8.4kbits/s speed=0.0329x    frame=  114 fps=5.2 q=57.0 size=       1kB time=00:00:00.72 bitrate=   8.2kbits/s speed=0.0326x    frame=  117 fps=5.0 q=57.0 size=       1kB time=00:00:00.78 bitrate=   7.5kbits/s speed=0.0335x    frame=  122 fps=5.0 q=57.0 size=       1kB time=00:00:00.88 bitrate=   6.7kbits/s speed=0.0362x    frame=  123 fps=4.8 q=57.0 size=       1kB time=00:00:00.90 bitrate=   6.5kbits/s speed=0.0353x    frame=  126 fps=4.8 q=56.0 size=       1kB time=00:00:00.96 bitrate=   6.1kbits/s speed=0.0363x    frame=  129 fps=4.7 q=56.0 size=       1kB time=00:00:01.02 bitrate=   5.8kbits/s speed=0.0373x    frame=  132 fps=4.5 q=56.0 size=       1kB time=00:00:01.08 bitrate=   5.4kbits/s speed=0.0367x    frame=  136 fps=4.5 q=56.0 size=       1kB time=00:00:01.16 bitrate=   5.1kbits/s speed=0.0387x    frame=  138 fps=4.4 q=56.0 size=       1kB time=00:00:01.20 bitrate=   4.9kbits/s speed=0.0379x    frame=  140 fps=4.3 q=56.0 size=       1kB time=00:00:01.24 bitrate=   4.7kbits/s speed=0.0381x    frame=  144 fps=4.2 q=56.0 size=       1kB time=00:00:01.32 bitrate=   4.5kbits/s speed=0.0384x    frame=  146 fps=4.1 q=56.0 size=       1kB time=00:00:01.36 bitrate=   4.3kbits/s speed=0.0384x    frame=  149 fps=4.1 q=56.0 size=       1kB time=00:00:01.42 bitrate=   4.1kbits/s speed=0.0391x    frame=  152 fps=4.0 q=56.0 size=       1kB time=00:00:01.48 bitrate=   4.0kbits/s speed=0.0389x    frame=  155 fps=4.0 q=56.0 size=       1kB time=00:00:01.54 bitrate=   3.8kbits/s speed=0.0399x    frame=  158 fps=3.9 q=56.0 size=       1kB time=00:00:01.60 bitrate=   3.7kbits/s speed=0.0394x    frame=  164 fps=3.8 q=55.0 size=       1kB time=00:00:01.72 bitrate=   3.4kbits/s speed=0.0402x    frame=  167 fps=3.8 q=55.0 size=       1kB time=00:00:01.78 bitrate=   3.3kbits/s speed=0.0405x    frame=  170 fps=3.8 q=55.0 size=       1kB time=00:00:01.84 bitrate=   3.2kbits/s speed=0.0407x    frame=  173 fps=3.7 q=55.0 size=       1kB time=00:00:01.90 bitrate=   3.1kbits/s speed=0.0406x    frame=  176 fps=3.7 q=55.0 size=       1kB time=00:00:01.96 bitrate=   3.0kbits/s speed=0.041x    frame=  179 fps=3.6 q=55.0 size=       1kB time=00:00:02.02 bitrate=   2.9kbits/s speed=0.041x    frame=  182 fps=3.6 q=55.0 size=       1kB time=00:00:02.08 bitrate=   2.8kbits/s speed=0.0412x    frame=  185 fps=3.6 q=55.0 size=       1kB time=00:00:02.14 bitrate=   2.8kbits/s speed=0.0412x    frame=  188 fps=3.6 q=55.0 size=       1kB time=00:00:02.20 bitrate=   2.7kbits/s speed=0.0418x    frame=  189 fps=3.6 q=55.0 size=       1kB time=00:00:02.22 bitrate=   2.7kbits/s speed=0.0418x    frame=  191 fps=3.5 q=55.0 size=       1kB time=00:00:02.26 bitrate=   2.6kbits/s speed=0.0416x    frame=  193 fps=3.5 q=55.0 size=       1kB time=00:00:02.30 bitrate=   2.6kbits/s speed=0.042x    frame=  194 fps=3.5 q=55.0 size=       1kB time=00:00:02.32 bitrate=   2.5kbits/s speed=0.0419x    frame=  197 fps=3.4 q=55.0 size=       1kB time=00:00:02.38 bitrate=   2.5kbits/s speed=0.0416x    frame=  200 fps=3.4 q=55.0 size=       1kB time=00:00:02.44 bitrate=   2.4kbits/s speed=0.042x    frame=  203 fps=3.4 q=55.0 size=       1kB time=00:00:02.50 bitrate=   2.4kbits/s speed=0.0419x    frame=  209 fps=3.4 q=55.0 size=       1kB time=00:00:02.62 bitrate=   2.2kbits/s speed=0.0428x    frame=  210 fps=3.3 q=55.0 size=       1kB time=00:00:02.64 bitrate=   2.2kbits/s speed=0.0421x    frame=  215 fps=3.3 q=55.0 size=       1kB time=00:00:02.74 bitrate=   2.1kbits/s speed=0.0426x    frame=  216 fps=3.3 q=55.0 size=       1kB time=00:00:02.76 bitrate=   2.1kbits/s speed=0.0421x    frame=  220 fps=3.3 q=55.0 size=       1kB time=00:00:02.84 bitrate=   2.1kbits/s speed=0.0428x    frame=  221 fps=3.3 q=55.0 size=       1kB time=00:00:02.86 bitrate=   2.1kbits/s speed=0.0426x    frame=  222 fps=3.3 q=55.0 size=       1kB time=00:00:02.88 bitrate=   2.0kbits/s speed=0.0424x    frame=  226 fps=3.3 q=55.0 size=       1kB time=00:00:02.96 bitrate=   2.0kbits/s speed=0.0429x    frame=  227 fps=3.3 q=55.0 size=       1kB time=00:00:02.98 bitrate=   2.0kbits/s speed=0.0428x    frame=  229 fps=3.2 q=55.0 size=       1kB time=00:00:03.02 bitrate=   1.9kbits/s speed=0.0427x    frame=  234 fps=3.2 q=55.0 size=       1kB time=00:00:03.12 bitrate=   1.9kbits/s speed=0.043x    frame=  235 fps=3.2 q=55.0 size=       1kB time=00:00:03.14 bitrate=   1.9kbits/s speed=0.0429x    frame=  238 fps=3.2 q=55.0 size=       1kB time=00:00:03.20 bitrate=   1.8kbits/s speed=0.0434x    frame=  240 fps=3.2 q=55.0 size=       1kB time=00:00:03.24 bitrate=   1.8kbits/s speed=0.0429x    frame=  246 fps=3.2 q=55.0 size=       1kB time=00:00:03.36 bitrate=   1.8kbits/s speed=0.0433x    frame=  252 fps=3.1 q=55.0 size=       1kB time=00:00:03.48 bitrate=   1.7kbits/s speed=0.0435x    frame=  258 fps=3.1 q=55.0 size=       1kB time=00:00:03.60 bitrate=   1.6kbits/s speed=0.0438x    frame=  261 fps=3.1 q=55.0 size=       1kB time=00:00:03.66 bitrate=   1.6kbits/s speed=0.0439x    frame=  264 fps=3.1 q=55.0 size=       1kB time=00:00:03.72 bitrate=   1.6kbits/s speed=0.044x    frame=  266 fps=3.1 q=55.0 size=       1kB time=00:00:03.76 bitrate=   1.6kbits/s speed=0.0442x    frame=  267 fps=3.1 q=55.0 size=       1kB time=00:00:03.78 bitrate=   1.6kbits/s speed=0.044x    frame=  270 fps=3.1 q=55.0 size=       1kB time=00:00:03.84 bitrate=   1.5kbits/s speed=0.0442x    frame=  273 fps=3.1 q=55.0 size=       1kB time=00:00:03.90 bitrate=   1.5kbits/s speed=0.0439x    frame=  276 fps=3.1 q=55.0 size=       1kB time=00:00:03.96 bitrate=   1.5kbits/s speed=0.0442x    frame=  279 fps=3.1 q=55.0 size=       1kB time=00:00:04.02 bitrate=   1.5kbits/s speed=0.044x    frame=  281 fps=3.1 q=55.0 size=       1kB time=00:00:04.06 bitrate=   1.4kbits/s speed=0.0442x    frame=  282 fps=3.0 q=55.0 size=       1kB time=00:00:04.08 bitrate=   1.4kbits/s speed=0.0441x    frame=  285 fps=3.0 q=55.0 size=       1kB time=00:00:04.14 bitrate=   1.4kbits/s speed=0.0442x    frame=  288 fps=3.0 q=55.0 size=       1kB time=00:00:04.20 bitrate=   1.4kbits/s speed=0.0441x    frame=  294 fps=3.0 q=55.0 size=       1kB time=00:00:04.32 bitrate=   1.4kbits/s speed=0.0442x    frame=  296 fps=3.0 q=55.0 size=       1kB time=00:00:04.36 bitrate=   1.4kbits/s speed=0.0443x    frame=  300 fps=3.0 q=55.0 size=       1kB time=00:00:04.44 bitrate=   1.3kbits/s speed=0.0442x    frame=  304 fps=3.0 q=55.0 size=       1kB time=00:00:04.52 bitrate=   1.3kbits/s speed=0.0445x    frame=  306 fps=3.0 q=55.0 size=       1kB time=00:00:04.56 bitrate=   1.3kbits/s speed=0.0442x    frame=  309 fps=3.0 q=55.0 size=       1kB time=00:00:04.62 bitrate=   1.3kbits/s speed=0.0446x    frame=  311 fps=3.0 q=55.0 size=       1kB time=00:00:04.66 bitrate=   1.3kbits/s speed=0.0445x    frame=  313 fps=2.9 q=55.0 size=       1kB time=00:00:04.70 bitrate=   1.3kbits/s speed=0.0436x    frame=  318 fps=2.9 q=55.0 size=       1kB time=00:00:04.80 bitrate=   1.2kbits/s speed=0.0442x    frame=  319 fps=2.9 q=55.0 size=       1kB time=00:00:04.82 bitrate=   1.2kbits/s speed=0.0439x    frame=  322 fps=2.9 q=56.0 size=       1kB time=00:00:04.88 bitrate=   1.2kbits/s speed=0.0442x    frame=  325 fps=2.9 q=56.0 size=     597kB time=00:00:04.94 bitrate= 989.1kbits/s speed=0.0443x    frame=  331 fps=2.9 q=56.0 size=     597kB time=00:00:05.06 bitrate= 965.6kbits/s speed=0.0447x    frame=  337 fps=3.0 q=56.0 size=     597kB time=00:00:05.18 bitrate= 943.3kbits/s speed=0.0454x    frame=  340 fps=2.9 q=56.0 size=     597kB time=00:00:05.24 bitrate= 932.5kbits/s speed=0.0451x    frame=  346 fps=2.9 q=56.0 size=     597kB time=00:00:05.36 bitrate= 911.6kbits/s speed=0.0457x    frame=  349 fps=2.9 q=56.0 size=     597kB time=00:00:05.42 bitrate= 901.5kbits/s speed=0.0455x    frame=  354 fps=3.0 q=56.0 size=     597kB time=00:00:05.52 bitrate= 885.2kbits/s speed=0.0461x    frame=  355 fps=2.9 q=56.0 size=     597kB time=00:00:05.54 bitrate= 882.0kbits/s speed=0.0459x    frame=  358 fps=2.9 q=56.0 size=     597kB time=00:00:05.60 bitrate= 872.5kbits/s speed=0.0459x    frame=  363 fps=3.0 q=56.0 size=     597kB time=00:00:05.70 bitrate= 857.2kbits/s speed=0.0463x    frame=  364 fps=2.9 q=56.0 size=     597kB time=00:00:05.72 bitrate= 854.2kbits/s speed=0.0461x    frame=  367 fps=2.9 q=56.0 size=     597kB time=00:00:05.78 bitrate= 845.4kbits/s speed=0.0462x    frame=  371 fps=2.9 q=56.0 size=     597kB time=00:00:05.86 bitrate= 833.8kbits/s speed=0.0465x    frame=  372 fps=2.9 q=56.0 size=     597kB time=00:00:05.88 bitrate= 831.0kbits/s speed=0.0464x    frame=  374 fps=2.9 q=56.0 size=     597kB time=00:00:05.92 bitrate= 825.4kbits/s speed=0.0464x    frame=  377 fps=2.9 q=56.0 size=     597kB time=00:00:05.98 bitrate= 817.1kbits/s speed=0.0466x    frame=  378 fps=2.9 q=56.0 size=     597kB time=00:00:06.00 bitrate= 814.4kbits/s speed=0.0462x    frame=  380 fps=2.9 q=56.0 size=     597kB time=00:00:06.04 bitrate= 809.0kbits/s speed=0.0463x    frame=  384 fps=2.9 q=56.0 size=     597kB time=00:00:06.12 bitrate= 798.4kbits/s speed=0.0462x    frame=  387 fps=2.9 q=56.0 size=     597kB time=00:00:06.18 bitrate= 790.7kbits/s speed=0.0463x    frame=  390 fps=2.9 q=56.0 size=     597kB time=00:00:06.24 bitrate= 783.1kbits/s speed=0.0462x    frame=  393 fps=2.9 q=56.0 size=     597kB time=00:00:06.30 bitrate= 775.6kbits/s speed=0.0463x    frame=  396 fps=2.9 q=56.0 size=     597kB time=00:00:06.36 bitrate= 768.3kbits/s speed=0.046x    frame=  399 fps=2.9 q=56.0 size=     597kB time=00:00:06.42 bitrate= 761.1kbits/s speed=0.0463x    frame=  401 fps=2.9 q=56.0 size=     597kB time=00:00:06.46 bitrate= 756.4kbits/s speed=0.0462x    frame=  402 fps=2.9 q=56.0 size=     597kB time=00:00:06.48 bitrate= 754.1kbits/s speed=0.0461x    frame=  406 fps=2.9 q=56.0 size=     597kB time=00:00:06.56 bitrate= 744.9kbits/s speed=0.0464x    frame=  407 fps=2.9 q=56.0 size=     597kB time=00:00:06.58 bitrate= 742.6kbits/s speed=0.0462x    frame=  408 fps=2.8 q=56.0 size=     597kB time=00:00:06.60 bitrate= 740.4kbits/s speed=0.046x    frame=  411 fps=2.8 q=56.0 size=     597kB time=00:00:06.66 bitrate= 733.7kbits/s speed=0.0462x    frame=  414 fps=2.8 q=56.0 size=     597kB time=00:00:06.72 bitrate= 727.1kbits/s speed=0.046x    frame=  417 fps=2.8 q=56.0 size=     597kB time=00:00:06.78 bitrate= 720.7kbits/s speed=0.0461x    frame=  419 fps=2.8 q=56.0 size=     597kB time=00:00:06.82 bitrate= 716.5kbits/s speed=0.0462x    frame=  421 fps=2.8 q=56.0 size=     597kB time=00:00:06.86 bitrate= 712.3kbits/s speed=0.0461x    frame=  423 fps=2.8 q=56.0 size=     597kB time=00:00:06.90 bitrate= 708.2kbits/s speed=0.0461x    frame=  425 fps=2.8 q=56.0 size=     597kB time=00:00:06.94 bitrate= 704.1kbits/s speed=0.0462x    frame=  426 fps=2.8 q=56.0 size=     597kB time=00:00:06.96 bitrate= 702.1kbits/s speed=0.0461x    frame=  428 fps=2.8 q=56.0 size=     597kB time=00:00:07.00 bitrate= 698.1kbits/s speed=0.0459x    frame=  432 fps=2.8 q=56.0 size=     597kB time=00:00:07.08 bitrate= 690.2kbits/s speed=0.0461x    frame=  434 fps=2.8 q=56.0 size=     597kB time=00:00:07.12 bitrate= 686.3kbits/s speed=0.0458x    frame=  438 fps=2.8 q=56.0 size=     597kB time=00:00:07.20 bitrate= 678.7kbits/s speed=0.0461x    frame=  440 fps=2.8 q=56.0 size=     597kB time=00:00:07.24 bitrate= 674.9kbits/s speed=0.0457x    frame=  443 fps=2.8 q=56.0 size=     597kB time=00:00:07.30 bitrate= 669.4kbits/s speed=0.046x    frame=  446 fps=2.8 q=56.0 size=     597kB time=00:00:07.36 bitrate= 663.9kbits/s speed=0.0457x    frame=  452 fps=2.8 q=56.0 size=     597kB time=00:00:07.48 bitrate= 653.3kbits/s speed=0.0461x    frame=  453 fps=2.8 q=56.0 size=     597kB time=00:00:07.50 bitrate= 651.5kbits/s speed=0.0457x    frame=  458 fps=2.8 q=56.0 size=     597kB time=00:00:07.60 bitrate= 643.0kbits/s speed=0.0461x    frame=  459 fps=2.8 q=56.0 size=     597kB time=00:00:07.62 bitrate= 641.3kbits/s speed=0.0457x    frame=  462 fps=2.8 q=56.0 size=     597kB time=00:00:07.68 bitrate= 636.3kbits/s speed=0.0459x    frame=  464 fps=2.8 q=56.0 size=     597kB time=00:00:07.72 bitrate= 633.0kbits/s speed=0.0459x    frame=  465 fps=2.8 q=56.0 size=     597kB time=00:00:07.74 bitrate= 631.3kbits/s speed=0.0458x    frame=  466 fps=2.8 q=56.0 size=     597kB time=00:00:07.76 bitrate= 629.7kbits/s speed=0.0458x    frame=  468 fps=2.7 q=56.0 size=     597kB time=00:00:07.80 bitrate= 626.5kbits/s speed=0.0458x    frame=  470 fps=2.7 q=56.0 size=     597kB time=00:00:07.84 bitrate= 623.3kbits/s speed=0.0458x    frame=  473 fps=2.7 q=56.0 size=     597kB time=00:00:07.90 bitrate= 618.5kbits/s speed=0.0459x    frame=  474 fps=2.7 q=56.0 size=     597kB time=00:00:07.92 bitrate= 617.0kbits/s speed=0.0459x    frame=  476 fps=2.7 q=56.0 size=     597kB time=00:00:07.96 bitrate= 613.9kbits/s speed=0.0457x    frame=  480 fps=2.7 q=56.0 size=     597kB time=00:00:08.04 bitrate= 607.8kbits/s speed=0.0458x    frame=  482 fps=2.7 q=56.0 size=     597kB time=00:00:08.08 bitrate= 604.8kbits/s speed=0.0457x    frame=  485 fps=2.7 q=56.0 size=     597kB time=00:00:08.14 bitrate= 600.3kbits/s speed=0.0459x    frame=  486 fps=2.7 q=56.0 size=     597kB time=00:00:08.16 bitrate= 598.8kbits/s speed=0.0457x    frame=  489 fps=2.7 q=56.0 size=     597kB time=00:00:08.22 bitrate= 594.5kbits/s speed=0.0457x    frame=  491 fps=2.7 q=56.0 size=     597kB time=00:00:08.26 bitrate= 591.6kbits/s speed=0.0457x    frame=  492 fps=2.7 q=56.0 size=     597kB time=00:00:08.28 bitrate= 590.2kbits/s speed=0.0456x    frame=  496 fps=2.7 q=56.0 size=     597kB time=00:00:08.36 bitrate= 584.5kbits/s speed=0.0457x    frame=  498 fps=2.7 q=56.0 size=     597kB time=00:00:08.40 bitrate= 581.7kbits/s speed=0.0456x    frame=  500 fps=2.3 q=-1.0 Lsize=    1284kB time=00:00:09.94 bitrate=1057.8kbits/s speed=0.0459x    
video:1279kB audio:0kB subtitle:0kB other streams:0kB global headers:0kB muxing overhead: 0.333197%
bench: utime=800.908s
bench: maxrss=3672224kB
[libx264 @ 0x4184120] frame I:3     Avg QP:49.64  size: 25532
[libx264 @ 0x4184120] frame P:63    Avg QP:50.81  size:  7289
[libx264 @ 0x4184120] frame B:434   Avg QP:51.00  size:  1782
[libx264 @ 0x4184120] consecutive B-frames:  0.8%  0.0%  0.0%  1.6%  4.0%  3.6% 11.2% 17.6% 61.2%
[libx264 @ 0x4184120] mb I  I16..4: 29.1% 70.8%  0.0%
[libx264 @ 0x4184120] mb P  I16..4:  5.2%  4.9%  0.0%  P16..4:  7.8%  0.0%  0.5%  0.0%  0.0%    skip:81.6%
[libx264 @ 0x4184120] mb B  I16..4:  0.0%  0.0%  0.0%  B16..8:  7.9%  0.0%  0.0%  direct: 0.0%  skip:92.1%  L0:12.5% L1:87.5% BI: 0.0%
[libx264 @ 0x4184120] final ratefactor: 48.36
[libx264 @ 0x4184120] 8x8 transform intra:55.7% inter:99.6%
[libx264 @ 0x4184120] direct mvs  spatial:99.1% temporal:0.9%
[libx264 @ 0x4184120] coded y,uvDC,uvAC intra: 2.1% 8.0% 0.1% inter: 0.0% 0.1% 0.0%
[libx264 @ 0x4184120] i16 v,h,dc,p: 50% 37%  2% 11%
[libx264 @ 0x4184120] i8 v,h,dc,ddl,ddr,vr,hd,vl,hu:  7%  2% 85%  1%  1%  1%  1%  1%  1%
[libx264 @ 0x4184120] i4 v,h,dc,ddl,ddr,vr,hd,vl,hu:  5%  7%  3% 20% 10%  9% 10%  8% 27%
[libx264 @ 0x4184120] i8c dc,h,v,p: 86% 13%  1%  0%
[libx264 @ 0x4184120] Weighted P-Frames: Y:3.2% UV:1.6%
[libx264 @ 0x4184120] ref P L0: 63.0%  0.1% 12.2%  5.0%  3.7%  3.9%  3.4%  1.2%  1.1%  1.1%  1.0%  1.0%  0.8%  0.9%  1.0%  0.5%
[libx264 @ 0x4184120] ref B L0: 78.6%  9.2%  5.3%  1.7%  1.3%  0.9%  1.0%  0.4%  0.3%  0.3%  0.3%  0.2%  0.3%  0.2%  0.1%
[libx264 @ 0x4184120] ref B L1: 97.5%  2.5%
[libx264 @ 0x4184120] kb/s:1047.48
